<svg width="25" height="24" viewBox="0 0 25 24" fill="none" xmlns="http://www.w3.org/2000/svg">
<path fill-rule="evenodd" clip-rule="evenodd" d="M14.0878 3.2517C13.4368 2.91968 12.5546 2.91456 11.8984 3.24572C9.60476 4.73726 7.1796 6.15909 5.10231 7.58476C4.79314 7.83439 4.57373 8.19713 4.57747 8.62411C4.5812 9.04933 4.80508 9.40722 5.11237 9.65274C7.1796 10.8985 9.60476 12.3204 11.8477 13.9529C12.4987 14.2849 13.3809 14.29 14.0371 13.9588C16.3952 12.3204 17.3653 11.8464 20.8332 9.6198C21.1424 9.37017 21.3618 9.00743 21.3581 8.58046C21.3543 8.15524 21.1305 7.79734 20.8232 7.55183C18.8204 6.15909 16.3952 4.73726 14.0878 3.2517ZM12.5661 4.50902C12.7986 4.3917 13.1805 4.39281 13.4146 4.51218C15.4252 5.68515 17.3653 7.10698 19.8238 8.59018C17.8503 9.95065 15.9102 11.3725 13.3694 12.6955C13.1369 12.8129 12.755 12.8118 12.521 12.6924C10.202 11.3725 8.14966 9.95065 6.11175 8.61438C8.14966 7.10698 9.60476 6.15909 12.5661 4.50902Z" fill="#7E74F1"/>
<path d="M21.8895 12.1029C22.1023 12.4359 21.9985 12.8745 21.6577 13.0824L15.7332 16.6966C14.9401 17.0598 13.9642 17.5337 13 17.5338C12.0358 17.5338 11.0599 17.0598 10.202 16.6969L4.34245 13.1236C4.00157 12.9157 3.8977 12.4772 4.11044 12.1441C4.32318 11.811 4.77197 11.7095 5.11285 11.9174L10.9724 15.4907C11.5002 15.8126 12.2497 16.112 13 16.1119C13.7503 16.1119 14.4349 15.8125 14.9626 15.4905L20.8871 11.8763C21.2279 11.6684 21.6767 11.7698 21.8895 12.1029Z" fill="#7E74F1"/>
<path d="M21.8895 15.6619C22.1023 15.9949 21.9985 16.4334 21.6577 16.6414L16.5271 19.7722C14.9401 20.531 14.2178 20.9999 12.9676 21C11.7175 21.0001 10.0898 20.057 9.40793 19.7726L4.34237 16.6826C4.00152 16.4747 3.8977 16.0362 4.11048 15.7031C4.32326 15.3701 4.77207 15.2686 5.11292 15.4765L10.1785 18.5665C10.9284 19.0239 11.9314 19.4296 12.9676 19.4295C14.0039 19.4295 15.0067 19.0237 15.7564 18.5662L20.887 15.4354C21.2278 15.2275 21.6766 15.3288 21.8895 15.6619Z" fill="#7E74F1"/>
</svg>
