<svg width="551" height="233" viewBox="0 0 551 233" fill="none" xmlns="http://www.w3.org/2000/svg">
<path d="M0 33H549C550.105 33 551 33.8954 551 35V39C551 40.1046 550.105 41 549 41H0V33Z" fill="#F5F3FE"/>
<path d="M0 35C0 33.8954 0.895431 33 2 33H372V41H2C0.895429 41 0 40.1046 0 39V35Z" fill="#7E74F1"/>
<path d="M1.11861 14V3.81818H4.74787C5.5367 3.81818 6.19129 3.95407 6.71165 4.22585C7.23532 4.49763 7.62642 4.87382 7.88494 5.3544C8.14347 5.83168 8.27273 6.38352 8.27273 7.00994C8.27273 7.63305 8.14181 8.18158 7.87997 8.65554C7.62145 9.12618 7.23035 9.49242 6.70668 9.75426C6.18632 10.0161 5.53172 10.147 4.7429 10.147H1.99361V8.82457H4.60369C5.10085 8.82457 5.50521 8.75331 5.81676 8.6108C6.13163 8.46828 6.36198 8.26113 6.50781 7.98935C6.65365 7.71757 6.72656 7.3911 6.72656 7.00994C6.72656 6.62547 6.65199 6.29238 6.50284 6.01065C6.35701 5.72893 6.12666 5.51349 5.81179 5.36435C5.50024 5.21188 5.09091 5.13565 4.58381 5.13565H2.65483V14H1.11861ZM6.14489 9.40625L8.66051 14H6.91051L4.4446 9.40625H6.14489ZM13.2182 14.1541C12.4658 14.1541 11.8179 13.9934 11.2743 13.6719C10.7341 13.3471 10.3165 12.8913 10.0215 12.3047C9.72982 11.7147 9.58398 11.0237 9.58398 10.2315C9.58398 9.44934 9.72982 8.75994 10.0215 8.16335C10.3165 7.56676 10.7275 7.10109 11.2544 6.76633C11.7847 6.43158 12.4045 6.2642 13.1138 6.2642C13.5447 6.2642 13.9623 6.33546 14.3667 6.47798C14.771 6.6205 15.1339 6.84422 15.4554 7.14915C15.7769 7.45407 16.0305 7.85014 16.2161 8.33736C16.4017 8.82126 16.4945 9.40956 16.4945 10.1023V10.6293H10.4242V9.51562H15.0378C15.0378 9.12453 14.9583 8.77817 14.7992 8.47656C14.6401 8.17164 14.4164 7.93134 14.128 7.75568C13.843 7.58002 13.5082 7.49219 13.1238 7.49219C12.7061 7.49219 12.3416 7.59493 12.03 7.80043C11.7218 8.0026 11.4831 8.26776 11.3141 8.59588C11.1484 8.92069 11.0655 9.27367 11.0655 9.65483V10.5249C11.0655 11.0353 11.155 11.4695 11.334 11.8274C11.5163 12.1854 11.7698 12.4588 12.0946 12.6477C12.4194 12.8333 12.7989 12.9261 13.2331 12.9261C13.5149 12.9261 13.7717 12.8864 14.0037 12.8068C14.2357 12.724 14.4363 12.6013 14.6053 12.4389C14.7743 12.2765 14.9036 12.076 14.9931 11.8374L16.4 12.0909C16.2873 12.5052 16.0852 12.8681 15.7935 13.1797C15.5051 13.4879 15.1422 13.7282 14.7047 13.9006C14.2705 14.0696 13.775 14.1541 13.2182 14.1541ZM20.3661 14.169C19.8822 14.169 19.4447 14.0795 19.0536 13.9006C18.6625 13.7183 18.3526 13.4548 18.1239 13.1101C17.8986 12.7654 17.7859 12.3428 17.7859 11.8423C17.7859 11.4115 17.8687 11.0568 18.0344 10.7784C18.2002 10.5 18.4239 10.2796 18.7056 10.1172C18.9873 9.95478 19.3022 9.83215 19.6502 9.74929C19.9982 9.66643 20.3529 9.60346 20.7141 9.56037C21.1715 9.50734 21.5427 9.46425 21.8278 9.43111C22.1128 9.39465 22.32 9.33665 22.4492 9.2571C22.5785 9.17756 22.6431 9.0483 22.6431 8.86932V8.83452C22.6431 8.40033 22.5205 8.06392 22.2752 7.82528C22.0333 7.58665 21.672 7.46733 21.1914 7.46733C20.6909 7.46733 20.2965 7.57836 20.0082 7.80043C19.7231 8.01918 19.5259 8.26278 19.4165 8.53125L18.0195 8.21307C18.1853 7.74905 18.4272 7.37453 18.7454 7.08949C19.0669 6.80114 19.4364 6.59233 19.854 6.46307C20.2717 6.33049 20.7108 6.2642 21.1715 6.2642C21.4764 6.2642 21.7996 6.30066 22.141 6.37358C22.4857 6.44318 22.8072 6.57244 23.1055 6.76136C23.4071 6.95028 23.654 7.22041 23.8462 7.57173C24.0385 7.91974 24.1346 8.37216 24.1346 8.92898V14H22.6829V12.956H22.6232C22.5271 13.1482 22.3829 13.3371 22.1907 13.5227C21.9985 13.7083 21.7515 13.8625 21.4499 13.9851C21.1483 14.1077 20.7871 14.169 20.3661 14.169ZM20.6893 12.9759C21.1003 12.9759 21.4516 12.8946 21.7433 12.7322C22.0382 12.5698 22.262 12.3577 22.4144 12.0959C22.5702 11.8307 22.6481 11.5473 22.6481 11.2457V10.2614C22.5951 10.3144 22.4923 10.3641 22.3398 10.4105C22.1907 10.4536 22.02 10.4917 21.8278 10.5249C21.6355 10.5547 21.4483 10.5829 21.266 10.6094C21.0837 10.6326 20.9312 10.6525 20.8086 10.669C20.5202 10.7055 20.2567 10.7668 20.0181 10.853C19.7828 10.9392 19.5939 11.0634 19.4513 11.2259C19.3121 11.3849 19.2425 11.5971 19.2425 11.8622C19.2425 12.2301 19.3784 12.5085 19.6502 12.6974C19.922 12.883 20.2683 12.9759 20.6893 12.9759ZM29.3311 14.1541C28.592 14.1541 27.9557 13.9867 27.4221 13.652C26.8917 13.3139 26.4841 12.8482 26.199 12.255C25.914 11.6617 25.7715 10.9822 25.7715 10.2166C25.7715 9.44105 25.9173 8.75663 26.209 8.16335C26.5007 7.56676 26.9116 7.10109 27.4419 6.76633C27.9722 6.43158 28.597 6.2642 29.3162 6.2642C29.8962 6.2642 30.4133 6.37192 30.8674 6.58736C31.3214 6.79948 31.6877 7.09777 31.9661 7.48224C32.2478 7.86671 32.4152 8.31581 32.4682 8.82955H31.0215C30.9419 8.47159 30.7596 8.16335 30.4746 7.90483C30.1929 7.64631 29.815 7.51705 29.3411 7.51705C28.9268 7.51705 28.5639 7.62642 28.2523 7.84517C27.9441 8.06061 27.7038 8.36884 27.5314 8.76989C27.3591 9.16761 27.2729 9.63826 27.2729 10.1818C27.2729 10.7386 27.3574 11.2192 27.5265 11.6236C27.6955 12.0279 27.9341 12.3411 28.2424 12.5632C28.5539 12.7853 28.9202 12.8963 29.3411 12.8963C29.6228 12.8963 29.878 12.8449 30.1067 12.7422C30.3387 12.6361 30.5326 12.4853 30.6884 12.2898C30.8475 12.0942 30.9585 11.8589 31.0215 11.5838H32.4682C32.4152 12.0777 32.2544 12.5185 31.986 12.9062C31.7175 13.294 31.3579 13.599 30.9071 13.821C30.4597 14.0431 29.9344 14.1541 29.3311 14.1541ZM37.6225 6.36364V7.55682H33.4513V6.36364H37.6225ZM34.57 4.53409H36.0565V11.7578C36.0565 12.0462 36.0996 12.2633 36.1857 12.4091C36.2719 12.5516 36.3829 12.6494 36.5188 12.7024C36.658 12.7521 36.8088 12.777 36.9712 12.777C37.0906 12.777 37.195 12.7687 37.2844 12.7521C37.3739 12.7356 37.4435 12.7223 37.4933 12.7124L37.7617 13.9403C37.6755 13.9735 37.5529 14.0066 37.3938 14.0398C37.2347 14.0762 37.0359 14.0961 36.7972 14.0994C36.4061 14.1061 36.0415 14.0365 35.7035 13.8906C35.3654 13.7448 35.092 13.5194 34.8832 13.2145C34.6744 12.9096 34.57 12.5268 34.57 12.0661V4.53409Z" fill="#232E35"/>
<path d="M0 195H549C550.105 195 551 195.895 551 197V201C551 202.105 550.105 203 549 203H0V195Z" fill="#F5F3FE"/>
<path d="M0 197C0 195.895 0.895431 195 2 195H352V203H2C0.895429 203 0 202.105 0 201V197Z" fill="#7E74F1"/>
<path d="M5.07599 165.818H6.60724V173.037C6.60724 173.69 6.47798 174.248 6.21946 174.712C5.96425 175.176 5.60464 175.531 5.14062 175.776C4.67661 176.018 4.13305 176.139 3.50994 176.139C2.93655 176.139 2.42116 176.035 1.96378 175.826C1.50971 175.617 1.15009 175.314 0.884943 174.916C0.623106 174.515 0.492188 174.028 0.492188 173.455H2.01847C2.01847 173.736 2.0831 173.98 2.21236 174.185C2.34493 174.391 2.52557 174.552 2.75426 174.668C2.98627 174.78 3.25142 174.837 3.54972 174.837C3.87453 174.837 4.14962 174.769 4.375 174.633C4.60369 174.494 4.7777 174.29 4.89702 174.021C5.01634 173.753 5.07599 173.425 5.07599 173.037V165.818ZM10.9462 176.169C10.4623 176.169 10.0248 176.08 9.6337 175.901C9.2426 175.718 8.93271 175.455 8.70401 175.11C8.47863 174.765 8.36594 174.343 8.36594 173.842C8.36594 173.411 8.4488 173.057 8.61452 172.778C8.78024 172.5 9.00397 172.28 9.28569 172.117C9.56741 171.955 9.88228 171.832 10.2303 171.749C10.5783 171.666 10.9329 171.603 11.2942 171.56C11.7516 171.507 12.1228 171.464 12.4078 171.431C12.6929 171.395 12.9 171.337 13.0293 171.257C13.1586 171.178 13.2232 171.048 13.2232 170.869V170.835C13.2232 170.4 13.1006 170.064 12.8553 169.825C12.6133 169.587 12.2521 169.467 11.7715 169.467C11.271 169.467 10.8766 169.578 10.5882 169.8C10.3032 170.019 10.106 170.263 9.99663 170.531L8.59961 170.213C8.76533 169.749 9.00728 169.375 9.32546 169.089C9.64696 168.801 10.0165 168.592 10.4341 168.463C10.8517 168.33 11.2909 168.264 11.7516 168.264C12.0565 168.264 12.3797 168.301 12.7211 168.374C13.0658 168.443 13.3873 168.572 13.6855 168.761C13.9872 168.95 14.2341 169.22 14.4263 169.572C14.6185 169.92 14.7147 170.372 14.7147 170.929V176H13.263V174.956H13.2033C13.1072 175.148 12.963 175.337 12.7708 175.523C12.5785 175.708 12.3316 175.862 12.03 175.985C11.7284 176.108 11.3671 176.169 10.9462 176.169ZM11.2694 174.976C11.6803 174.976 12.0317 174.895 12.3233 174.732C12.6183 174.57 12.842 174.358 12.9945 174.096C13.1503 173.831 13.2282 173.547 13.2282 173.246V172.261C13.1751 172.314 13.0724 172.364 12.9199 172.411C12.7708 172.454 12.6001 172.492 12.4078 172.525C12.2156 172.555 12.0284 172.583 11.8461 172.609C11.6638 172.633 11.5113 172.652 11.3887 172.669C11.1003 172.705 10.8368 172.767 10.5982 172.853C10.3629 172.939 10.1739 173.063 10.0314 173.226C9.89222 173.385 9.82262 173.597 9.82262 173.862C9.82262 174.23 9.95851 174.509 10.2303 174.697C10.5021 174.883 10.8484 174.976 11.2694 174.976ZM22.9538 168.364L20.1847 176H18.5938L15.8196 168.364H17.4155L19.3494 174.24H19.429L21.358 168.364H22.9538ZM26.3544 176.169C25.8705 176.169 25.433 176.08 25.0419 175.901C24.6508 175.718 24.3409 175.455 24.1122 175.11C23.8868 174.765 23.7741 174.343 23.7741 173.842C23.7741 173.411 23.857 173.057 24.0227 172.778C24.1884 172.5 24.4122 172.28 24.6939 172.117C24.9756 171.955 25.2905 171.832 25.6385 171.749C25.9865 171.666 26.3411 171.603 26.7024 171.56C27.1598 171.507 27.531 171.464 27.8161 171.431C28.1011 171.395 28.3082 171.337 28.4375 171.257C28.5668 171.178 28.6314 171.048 28.6314 170.869V170.835C28.6314 170.4 28.5088 170.064 28.2635 169.825C28.0215 169.587 27.6603 169.467 27.1797 169.467C26.6792 169.467 26.2848 169.578 25.9964 169.8C25.7114 170.019 25.5142 170.263 25.4048 170.531L24.0078 170.213C24.1735 169.749 24.4155 169.375 24.7337 169.089C25.0552 168.801 25.4247 168.592 25.8423 168.463C26.2599 168.33 26.6991 168.264 27.1598 168.264C27.4647 168.264 27.7879 168.301 28.1293 168.374C28.474 168.443 28.7955 168.572 29.0938 168.761C29.3954 168.95 29.6423 169.22 29.8345 169.572C30.0268 169.92 30.1229 170.372 30.1229 170.929V176H28.6712V174.956H28.6115C28.5154 175.148 28.3712 175.337 28.179 175.523C27.9867 175.708 27.7398 175.862 27.4382 175.985C27.1366 176.108 26.7753 176.169 26.3544 176.169ZM26.6776 174.976C27.0885 174.976 27.4399 174.895 27.7315 174.732C28.0265 174.57 28.2502 174.358 28.4027 174.096C28.5585 173.831 28.6364 173.547 28.6364 173.246V172.261C28.5833 172.314 28.4806 172.364 28.3281 172.411C28.179 172.454 28.0083 172.492 27.8161 172.525C27.6238 172.555 27.4366 172.583 27.2543 172.609C27.072 172.633 26.9195 172.652 26.7969 172.669C26.5085 172.705 26.245 172.767 26.0064 172.853C25.7711 172.939 25.5821 173.063 25.4396 173.226C25.3004 173.385 25.2308 173.597 25.2308 173.862C25.2308 174.23 25.3667 174.509 25.6385 174.697C25.9103 174.883 26.2566 174.976 26.6776 174.976ZM37.8251 170.228L36.4778 170.467C36.4215 170.294 36.332 170.13 36.2093 169.974C36.09 169.819 35.9276 169.691 35.7221 169.592C35.5166 169.492 35.2598 169.442 34.9515 169.442C34.5306 169.442 34.1793 169.537 33.8975 169.726C33.6158 169.911 33.475 170.152 33.475 170.447C33.475 170.702 33.5694 170.907 33.7583 171.063C33.9473 171.219 34.2522 171.347 34.6731 171.446L35.8862 171.724C36.5888 171.887 37.1125 172.137 37.4572 172.475C37.8019 172.813 37.9743 173.252 37.9743 173.793C37.9743 174.25 37.8417 174.658 37.5765 175.016C37.3147 175.37 36.9484 175.649 36.4778 175.851C36.0105 176.053 35.4686 176.154 34.8521 176.154C33.997 176.154 33.2993 175.972 32.7591 175.607C32.2188 175.239 31.8874 174.717 31.7647 174.041L33.2015 173.822C33.291 174.197 33.475 174.48 33.7534 174.673C34.0318 174.862 34.3947 174.956 34.8422 174.956C35.3294 174.956 35.7188 174.855 36.0105 174.653C36.3021 174.447 36.448 174.197 36.448 173.902C36.448 173.663 36.3585 173.463 36.1795 173.3C36.0038 173.138 35.7337 173.015 35.3691 172.933L34.0765 172.649C33.3639 172.487 32.8369 172.228 32.4956 171.874C32.1575 171.519 31.9885 171.07 31.9885 170.526C31.9885 170.076 32.1144 169.681 32.3663 169.343C32.6182 169.005 32.9662 168.741 33.4103 168.553C33.8545 168.36 34.3632 168.264 34.9366 168.264C35.7619 168.264 36.4115 168.443 36.8855 168.801C37.3594 169.156 37.6726 169.631 37.8251 170.228ZM42.8253 176.154C42.0862 176.154 41.4498 175.987 40.9162 175.652C40.3859 175.314 39.9782 174.848 39.6932 174.255C39.4081 173.662 39.2656 172.982 39.2656 172.217C39.2656 171.441 39.4115 170.757 39.7031 170.163C39.9948 169.567 40.4058 169.101 40.9361 168.766C41.4664 168.432 42.0911 168.264 42.8104 168.264C43.3904 168.264 43.9074 168.372 44.3615 168.587C44.8156 168.799 45.1818 169.098 45.4602 169.482C45.742 169.867 45.9093 170.316 45.9624 170.83H44.5156C44.4361 170.472 44.2538 170.163 43.9688 169.905C43.687 169.646 43.3092 169.517 42.8352 169.517C42.4209 169.517 42.058 169.626 41.7464 169.845C41.4382 170.061 41.1979 170.369 41.0256 170.77C40.8532 171.168 40.767 171.638 40.767 172.182C40.767 172.739 40.8516 173.219 41.0206 173.624C41.1896 174.028 41.4283 174.341 41.7365 174.563C42.0481 174.785 42.4143 174.896 42.8352 174.896C43.117 174.896 43.3722 174.845 43.6009 174.742C43.8329 174.636 44.0268 174.485 44.1825 174.29C44.3416 174.094 44.4527 173.859 44.5156 173.584H45.9624C45.9093 174.078 45.7486 174.518 45.4801 174.906C45.2116 175.294 44.852 175.599 44.4013 175.821C43.9538 176.043 43.4285 176.154 42.8253 176.154ZM47.552 176V168.364H48.9888V169.577H49.0684C49.2076 169.166 49.4528 168.843 49.8042 168.607C50.1588 168.369 50.5598 168.249 51.0073 168.249C51.1001 168.249 51.2095 168.253 51.3354 168.259C51.4647 168.266 51.5658 168.274 51.6387 168.284V169.706C51.579 169.689 51.473 169.671 51.3205 169.651C51.168 169.628 51.0156 169.616 50.8631 169.616C50.5118 169.616 50.1986 169.691 49.9235 169.84C49.6517 169.986 49.4363 170.19 49.2772 170.452C49.1181 170.71 49.0385 171.005 49.0385 171.337V176H47.552ZM52.9251 176V168.364H54.4116V176H52.9251ZM53.6758 167.185C53.4173 167.185 53.1952 167.099 53.0096 166.927C52.8273 166.751 52.7362 166.542 52.7362 166.3C52.7362 166.055 52.8273 165.846 53.0096 165.674C53.1952 165.498 53.4173 165.411 53.6758 165.411C53.9343 165.411 54.1547 165.498 54.337 165.674C54.5226 165.846 54.6154 166.055 54.6154 166.3C54.6154 166.542 54.5226 166.751 54.337 166.927C54.1547 167.099 53.9343 167.185 53.6758 167.185ZM56.4114 178.864V168.364H57.8631V169.602H57.9874C58.0736 169.442 58.1979 169.259 58.3603 169.05C58.5227 168.841 58.748 168.659 59.0364 168.503C59.3248 168.344 59.7059 168.264 60.1799 168.264C60.7963 168.264 61.3465 168.42 61.8304 168.732C62.3143 169.043 62.6938 169.492 62.9689 170.079C63.2473 170.665 63.3865 171.371 63.3865 172.197C63.3865 173.022 63.249 173.73 62.9739 174.32C62.6988 174.906 62.321 175.359 61.8404 175.677C61.3598 175.992 60.8113 176.149 60.1948 176.149C59.7308 176.149 59.3513 176.071 59.0563 175.915C58.7646 175.76 58.5359 175.577 58.3702 175.369C58.2045 175.16 58.0769 174.974 57.9874 174.812H57.8979V178.864H56.4114ZM57.8681 172.182C57.8681 172.719 57.946 173.189 58.1017 173.594C58.2575 173.998 58.4829 174.315 58.7779 174.543C59.0729 174.769 59.4341 174.881 59.8617 174.881C60.3058 174.881 60.677 174.764 60.9753 174.528C61.2736 174.29 61.499 173.967 61.6515 173.559C61.8072 173.151 61.8851 172.692 61.8851 172.182C61.8851 171.678 61.8089 171.226 61.6564 170.825C61.5073 170.424 61.2819 170.107 60.9803 169.875C60.682 169.643 60.3091 169.527 59.8617 169.527C59.4308 169.527 59.0662 169.638 58.7679 169.86C58.473 170.082 58.2492 170.392 58.0968 170.79C57.9443 171.187 57.8681 171.652 57.8681 172.182ZM68.6167 168.364V169.557H64.4455V168.364H68.6167ZM65.5641 166.534H67.0506V173.758C67.0506 174.046 67.0937 174.263 67.1799 174.409C67.266 174.552 67.3771 174.649 67.513 174.702C67.6522 174.752 67.803 174.777 67.9654 174.777C68.0847 174.777 68.1891 174.769 68.2786 174.752C68.3681 174.736 68.4377 174.722 68.4874 174.712L68.7559 175.94C68.6697 175.973 68.5471 176.007 68.388 176.04C68.2289 176.076 68.03 176.096 67.7914 176.099C67.4003 176.106 67.0357 176.036 66.6976 175.891C66.3596 175.745 66.0861 175.519 65.8773 175.214C65.6685 174.91 65.5641 174.527 65.5641 174.066V166.534Z" fill="#232E35"/>
<path d="M0 114H549C550.105 114 551 114.895 551 116V120C551 121.105 550.105 122 549 122H0V114Z" fill="#F5F3FE"/>
<path d="M0 116C0 114.895 0.895431 114 2 114H286V122H2C0.895427 122 0 121.105 0 120V116Z" fill="#7E74F1"/>
<path d="M1.97869 95H0.348011L4.01207 84.8182H5.78693L9.45099 95H7.82031L4.94176 86.6676H4.86222L1.97869 95ZM2.25213 91.0128H7.5419V92.3054H2.25213V91.0128ZM12.2885 90.4659V95H10.802V87.3636H12.2289V88.6065H12.3233C12.499 88.2022 12.7741 87.8774 13.1486 87.6321C13.5265 87.3868 14.0021 87.2642 14.5755 87.2642C15.0958 87.2642 15.5516 87.3736 15.9426 87.5923C16.3337 87.8078 16.637 88.1293 16.8525 88.5568C17.0679 88.9844 17.1756 89.513 17.1756 90.1428V95H15.6891V90.3217C15.6891 89.7682 15.5449 89.3357 15.2566 89.0241C14.9682 88.7093 14.5721 88.5518 14.0684 88.5518C13.7237 88.5518 13.4171 88.6264 13.1486 88.7756C12.8835 88.9247 12.673 89.1435 12.5172 89.4318C12.3648 89.7169 12.2885 90.0616 12.2885 90.4659ZM22.3709 98.0227C21.7644 98.0227 21.2424 97.9432 20.8049 97.7841C20.3707 97.625 20.016 97.4145 19.7409 97.1527C19.4658 96.8909 19.2604 96.6042 19.1245 96.2926L20.4022 95.7656C20.4917 95.9115 20.611 96.0656 20.7601 96.228C20.9126 96.3937 21.1181 96.5346 21.3766 96.6506C21.6384 96.7666 21.9748 96.8246 22.3858 96.8246C22.9493 96.8246 23.415 96.687 23.7828 96.4119C24.1507 96.1402 24.3347 95.706 24.3347 95.1094V93.608H24.2402C24.1507 93.7704 24.0215 93.951 23.8525 94.1499C23.6867 94.3487 23.458 94.5211 23.1664 94.6669C22.8747 94.8127 22.4952 94.8857 22.0279 94.8857C21.4247 94.8857 20.8811 94.7448 20.3972 94.4631C19.9166 94.178 19.5355 93.7588 19.2537 93.2053C18.9753 92.6484 18.8361 91.964 18.8361 91.152C18.8361 90.34 18.9737 89.6439 19.2488 89.0639C19.5272 88.4839 19.9083 88.0398 20.3922 87.7315C20.8761 87.42 21.4247 87.2642 22.0378 87.2642C22.5118 87.2642 22.8946 87.3438 23.1863 87.5028C23.4779 87.6586 23.705 87.8409 23.8674 88.0497C24.0331 88.2585 24.1607 88.4425 24.2502 88.6016H24.3596V87.3636H25.8162V95.169C25.8162 95.8253 25.6638 96.3639 25.3588 96.7848C25.0539 97.2057 24.6413 97.5173 24.1209 97.7195C23.6039 97.9216 23.0205 98.0227 22.3709 98.0227ZM22.356 93.6527C22.7836 93.6527 23.1448 93.5533 23.4398 93.3544C23.7381 93.1522 23.9635 92.8639 24.1159 92.4893C24.2717 92.1115 24.3496 91.6591 24.3496 91.1321C24.3496 90.6184 24.2734 90.166 24.1209 89.7749C23.9685 89.3838 23.7447 89.0788 23.4498 88.8601C23.1548 88.638 22.7902 88.527 22.356 88.527C21.9086 88.527 21.5357 88.643 21.2374 88.875C20.9391 89.1037 20.7137 89.4152 20.5613 89.8097C20.4121 90.2041 20.3375 90.6449 20.3375 91.1321C20.3375 91.6326 20.4138 92.0717 20.5662 92.4496C20.7187 92.8274 20.9441 93.1224 21.2424 93.3345C21.544 93.5466 21.9152 93.6527 22.356 93.6527ZM32.6472 91.8331V87.3636H34.1387V95H32.677V93.6776H32.5975C32.4218 94.0852 32.1401 94.425 31.7523 94.6967C31.3678 94.9652 30.8889 95.0994 30.3155 95.0994C29.825 95.0994 29.3908 94.9917 29.013 94.7763C28.6384 94.5575 28.3435 94.2344 28.128 93.8068C27.9159 93.3793 27.8098 92.8506 27.8098 92.2209V87.3636H29.2963V92.0419C29.2963 92.5623 29.4405 92.9766 29.7289 93.2848C30.0172 93.593 30.3917 93.7472 30.8525 93.7472C31.1309 93.7472 31.4076 93.6776 31.6827 93.5384C31.9611 93.3991 32.1915 93.1887 32.3738 92.907C32.5594 92.6252 32.6505 92.2673 32.6472 91.8331ZM37.6225 84.8182V95H36.136V84.8182H37.6225ZM41.8446 95.169C41.3607 95.169 40.9232 95.0795 40.5321 94.9006C40.141 94.7183 39.8311 94.4548 39.6025 94.1101C39.3771 93.7654 39.2644 93.3428 39.2644 92.8423C39.2644 92.4115 39.3472 92.0568 39.513 91.7784C39.6787 91.5 39.9024 91.2796 40.1841 91.1172C40.4658 90.9548 40.7807 90.8321 41.1287 90.7493C41.4767 90.6664 41.8314 90.6035 42.1926 90.5604C42.65 90.5073 43.0212 90.4643 43.3063 90.4311C43.5913 90.3946 43.7985 90.3366 43.9277 90.2571C44.057 90.1776 44.1216 90.0483 44.1216 89.8693V89.8345C44.1216 89.4003 43.999 89.0639 43.7537 88.8253C43.5118 88.5866 43.1505 88.4673 42.6699 88.4673C42.1694 88.4673 41.775 88.5784 41.4867 88.8004C41.2016 89.0192 41.0044 89.2628 40.8951 89.5312L39.498 89.2131C39.6638 88.7491 39.9057 88.3745 40.2239 88.0895C40.5454 87.8011 40.915 87.5923 41.3326 87.4631C41.7502 87.3305 42.1893 87.2642 42.65 87.2642C42.955 87.2642 43.2781 87.3007 43.6195 87.3736C43.9642 87.4432 44.2857 87.5724 44.584 87.7614C44.8856 87.9503 45.1325 88.2204 45.3248 88.5717C45.517 88.9197 45.6131 89.3722 45.6131 89.929V95H44.1614V93.956H44.1017C44.0056 94.1482 43.8614 94.3371 43.6692 94.5227C43.477 94.7083 43.2301 94.8625 42.9284 94.9851C42.6268 95.1077 42.2656 95.169 41.8446 95.169ZM42.1678 93.9759C42.5788 93.9759 42.9301 93.8946 43.2218 93.7322C43.5167 93.5698 43.7405 93.3577 43.8929 93.0959C44.0487 92.8307 44.1266 92.5473 44.1266 92.2457V91.2614C44.0736 91.3144 43.9708 91.3641 43.8184 91.4105C43.6692 91.4536 43.4985 91.4917 43.3063 91.5249C43.1141 91.5547 42.9268 91.5829 42.7445 91.6094C42.5622 91.6326 42.4097 91.6525 42.2871 91.669C41.9988 91.7055 41.7353 91.7668 41.4966 91.853C41.2613 91.9392 41.0724 92.0634 40.9299 92.2259C40.7907 92.3849 40.7211 92.5971 40.7211 92.8622C40.7211 93.2301 40.8569 93.5085 41.1287 93.6974C41.4005 93.883 41.7469 93.9759 42.1678 93.9759ZM47.593 95V87.3636H49.0298V88.5767H49.1094C49.2486 88.1657 49.4938 87.8426 49.8452 87.6072C50.1998 87.3686 50.6009 87.2493 51.0483 87.2493C51.1411 87.2493 51.2505 87.2526 51.3764 87.2592C51.5057 87.2659 51.6068 87.2741 51.6797 87.2841V88.706C51.62 88.6894 51.514 88.6712 51.3615 88.6513C51.209 88.6281 51.0566 88.6165 50.9041 88.6165C50.5528 88.6165 50.2396 88.6911 49.9645 88.8402C49.6927 88.986 49.4773 89.1899 49.3182 89.4517C49.1591 89.7102 49.0795 90.0052 49.0795 90.3366V95H47.593Z" fill="#232E35"/>
</svg>
